<?xml version="1.0" encoding="UTF-8"?>
<svg id="Layer_2" data-name="Layer 2" xmlns="http://www.w3.org/2000/svg" viewBox="0 0 1060.06 137.83">
  <defs>
    <style>
      .cls-1 {
        fill: #231f20;
      }

      .cls-2 {
        fill: #e34234;
      }

      .cls-3 {
        fill: #222221;
      }
    </style>
  </defs>
  <g id="Layer_1-2" data-name="Layer 1">
    <path class="cls-1" d="M225.31,59.22h-.07s.01-.01.01-.01c.24.05.02,0,.05.01Z"/>
    <g>
      <path class="cls-3" d="M84.52,18.78c-.33-.33-.65-.66-.5-.63l.12-.18.24-.36.49-.72c.18-.22.35-.45.58-.65.12-.09.22-.19.35-.27l.19-.12.09-.06s.13.02.7.54c.4.36.77.73,1.13,1.12l.09.1c.52.57.6.68.56.69l-.04.08-.09.17c-.05.12-.13.21-.19.31l-.46.57-.52.53-.26.27-.13.13c.07.13-.33-.1-.75-.32l-.07-.04c-.57-.31-1.09-.71-1.53-1.14Z"/>
      <path class="cls-3" d="M216.39,12.34c-.13-.42-.27-.83-.44-1.22l-.41-.94c-.2-.47-.53-.88-.99-1.19l-.06-.04c-2.42-1.62-5.23-2.81-8.03-3.6-1.42-.4-2.87-.68-4.35-.86-.72-.1-1.51-.13-2.21-.18l-1.94-.1c-1.27-.09-2.53-.2-3.58-.43-.5-.1-1.05-.28-1.73-.48l-2-.59c-2.55-.71-5.58-1.03-8.51-.24C178.01.86,173.64-.04,169.12,0c-2.43.03-4.87.36-7.25,1.03l-1.76.57-1.71.7c-1.09.47-2.03.93-3.05,1.4h-.03c-1.35.65-1.92,2.25-1.29,3.6h0s.99,2.1.99,2.1l.25.52c.09.19.24.49.37.71.27.46.55.88.85,1.26,1.2,1.54,2.67,2.76,4.3,3.68.96.54,1.96.96,2.99,1.28-.08,0-.16,0-.25,0l-3.6-.26c-1.02-.06-2.06-.09-3.16-.07-2.43-1.06-4.91-2.31-7.33-3.6-2.55-1.37-5.2-2.9-7.91-4.27-2.72-1.37-5.49-2.67-8.39-3.77-2.89-1.11-5.91-2.07-9.19-2.53-3.01-.37-6.19-.68-9.4-.4-3.18.25-6.27.9-9.25,1.84-2.99.94-5.83,2.12-8.61,3.59-2.81,1.5-5.29,3.49-7.48,5.67-.53.54-.59,1.41-.1,2,.52.64,1.46.73,2.1.21h0c2.22-1.82,4.62-3.35,7.15-4.48,2.58-1.11,5.35-2.02,8.11-2.65,2.77-.62,5.57-1.02,8.34-1.07,1.39-.01,2.75-.01,4.14.11,1.38.11,2.88.3,4.27.48,5.28.79,10.71,3.21,15.87,5.79,2.6,1.31,5.11,2.77,7.8,4.22,2.68,1.43,5.35,2.8,8.25,4.04.35.15.75.23,1.15.21h.03c1.01-.05,2.14,0,3.29.06l3.55.27c1.37.09,2.78.08,4.33-.24.78-.17,1.58-.41,2.47-.92.44-.26.89-.56,1.39-1.13.14-.18.25-.3.39-.54l.19-.36.06-.13.11-.25,1.18-1.83.13-.2c.2-.31.34-.68.39-1.07.18-1.42-.83-2.72-2.25-2.89l-2.38-.3-1.19-.15-.6-.07-.46-.08c-1.23-.2-2.41-.61-3.46-1.21-1.05-.59-1.99-1.39-2.68-2.28-.18-.22-.32-.44-.44-.65l-.17-.32-.06-.14c.16-.07.34-.16.5-.23l1.35-.55,1.39-.44c1.88-.52,3.85-.79,5.83-.81,3.97-.05,8.07.86,11.78,2.42h.03c.61.27,1.31.3,1.97.06,1.83-.67,3.99-.56,6.26.06l1.85.55c.61.18,1.33.42,2.14.59,1.57.34,2.99.45,4.39.55l2.07.11c.64.05,1.19.06,1.79.15,1.18.14,2.37.37,3.53.7,2.08.6,4.04,1.4,5.87,2.53.72,1.8.54,2.82-.21,3.7-.43.47-1.15.87-2.12,1.12-.48.13-1.01.22-1.58.29-.35.06-.41.01-1.25.17-.52.12-.87.24-1.24.36-1.41.49-2.67,1.01-3.95,1.58-.6.26-1.39.63-1.96.96l-1.74.92c-2.26,1.16-4.68,2.32-6.71,2.83h-.05c-.67.18-1.28.6-1.67,1.23-.7,1.13-.97,2.28-1.17,2.75-.24.63-.55,1.29-.9,1.95-.35.66-.73,1.32-1.13,1.97l-.62.97-.47.7c-.5.43-.96.8-1.63,1.46-.72.7-1.33,1.49-1.86,2.3-1.05,1.63-1.68,3.29-2.26,4.79-1.11,3.06-2.06,5.43-3.9,6.94-1,.86-2.31,1.72-3.7,2.86-1.4,1.12-2.82,2.79-3.66,4.48-1.75,3.44-2.1,6.82-2.89,9.57-.9,3.04-1.57,6.11-2.83,8.19-.65,1.06-1.27,1.7-2.26,2.24-.96.52-2.11.81-3.26.84-1.13.03-2.18-.25-2.81-.7-.08-.05-.15-.12-.22-.17-.04-.04-.09-.08-.14-.15-.1-.13-.23-.29-.34-.5-.22-.4-.41-.92-.52-1.44-.24-.88-.06-1.9.05-2.12.02,0,.03,0,.07-.01.11,0,.26,0,.48.05h.08s.21.05.21.05c.5.08,1.09.03,1.56-.16.42-.17.62-.32.91-.56.28-.24.47-.51.5-.57.14-.2.33-.58.36-.68l.14-.43.07-.3c.05-.21.06-.34.09-.5.14-1.13.11-1.94.1-2.82-.02-.86-.07-1.69-.14-2.52-.15-1.68-.32-3.27-.75-5.12-.15-.51-.18-.88-.67-1.83-.1-.16-.1-.2-.29-.45-.14-.19-.44-.49-.51-.54-.18-.14-.36-.29-.56-.41-.39-.25-.82-.43-1.22-.55-1.67-.46-2.89-.16-3.91.1-2.02.61-3.53,1.51-5.01,2.46l-7.75,5.56-3.8,2.74c-1.16.81-2.51,1.6-3.9,2.49-.7.45-1.4.93-2.11,1.46-.69.51-1.47,1.2-2.03,1.74l-3.46,3.12-1.73,1.56c-.57.5-1.18,1.09-1.68,1.45-1.06.84-2.25,1.6-3.49,2.22-2.48,1.26-5.26,2.04-8.19,2.55-1.5.27-2.89.43-4.57.65-1.78.24-3.59.71-5.27,1.42-1.68.72-3.26,1.64-4.66,2.69-.71.52-1.37,1.06-2.01,1.6l-.93.81c-.31.28-.55.48-.97.88-1.41,1.41-2.35,2.75-3.31,4.14-.93,1.38-1.79,2.77-2.61,4.17-.82,1.4-1.6,2.81-2.35,4.25-.81,1.5-1.46,3.08-2.07,4.54-1.22,2.98-2.32,5.95-3.41,8.94-1.12,3.09-1.94,6.08-3.15,8.61-1.19,2.56-2.78,4.44-4.89,5.37-2.13.96-4.82.96-6.87.04-1-.45-1.69-1.13-1.83-1.61-.18-.49-.14-1.33.38-2.46.5-1.11,1.28-2.3,2.18-3.58l2.66-3.94c.89-1.32,1.79-2.68,2.64-4.12.83-1.43,1.67-2.94,2.31-4.7,1.21-3.43,1.52-6.77,1.96-9.8.23-1.54.46-2.91.84-4.35.36-1.44.78-2.85,1.3-4.22,2-5.46,5.43-10.38,10.35-12.46,2.39-1.1,5.42-1.46,8.73-2.35,1.67-.47,3.31-1.04,4.97-1.91.83-.45,1.67-.97,2.51-1.72.81-.75,1.73-1.82,2.09-3.43.28-1.24-.34-2.54-1.55-3.07h-.03c-2.47-1.1-4.91-1.75-7.19-2.42l-1.69-.5c-.38-.11-1.46-.51-2.58-.49-1.12,0-2.26.37-3.08.86-.84.49-1.44,1.05-1.96,1.55-3.17,3.4-6.91,6.85-10.18,10.32-6.65,6.93-13.22,13.76-21.13,18.44-3.92,2.34-8.12,4.12-12.48,4.98-4.31.89-8.87.74-13.21-.21-4.34-.97-8.49-2.8-11.83-5.53-1.67-1.36-3.13-2.94-4.26-4.71-.3-.43-.54-.9-.81-1.36l-.74-1.51c.45.05.91.13,1.36.27.75.22,1.47.54,2.11.94.15.11.31.2.46.32l.51.4c.46.35.89.72,1.37,1.04,3.74,2.65,8.3,4.15,12.85,4.31,4.56.18,9.11-.93,13.08-2.97,4.01-2,7.38-4.88,10.35-7.96,2.95-3.11,5.49-6.47,7.85-9.87,2.35-3.4,4.61-6.84,6.74-10.41,2.12-3.57,4.11-7.21,5.75-10.95.81-1.88,1.6-3.76,2.28-5.7.72-1.93,1.61-3.75,2.38-5.65.23-.56.03-1.23-.49-1.57-.6-.39-1.4-.22-1.79.38-1.12,1.71-2.11,3.5-3.27,5.19-1.2,1.68-2.28,3.42-3.35,5.15-2.11,3.49-3.93,7.06-5.99,10.48-2.05,3.42-4.27,6.79-6.56,10.09-2.29,3.29-4.69,6.43-7.35,9.24-2.68,2.77-5.62,5.25-8.93,6.88-3.27,1.67-6.9,2.53-10.49,2.38-3.58-.14-7.09-1.3-9.99-3.36-.37-.25-.71-.54-1.07-.81l-.69-.54c-.26-.2-.53-.37-.8-.55-1.09-.68-2.24-1.19-3.44-1.55-2.38-.71-5.12-.86-7.79.23-1.27.52-1.94,1.96-1.49,3.28v.03c.49,1.41,1.1,2.56,1.59,3.6l.84,1.72c.33.59.65,1.19,1.03,1.75,1.46,2.28,3.31,4.28,5.36,5.96,4.12,3.37,9.02,5.5,14.05,6.63,5.04,1.11,10.31,1.3,15.43.27,5.09-1,9.87-3.04,14.21-5.62,4.78-2.83,9-6.29,12.95-9.96-.07.18-.15.36-.22.54-.6,1.58-1.08,3.18-1.49,4.8-.43,1.6-.73,3.34-.96,4.92-.46,3.19-.79,6.18-1.7,8.7-.43,1.2-1.12,2.46-1.87,3.75-.75,1.27-1.59,2.54-2.46,3.83l-2.63,3.88c-.9,1.3-1.9,2.73-2.7,4.49-.4.88-.74,1.89-.89,3.04-.16,1.14-.06,2.44.37,3.67.96,2.52,2.95,3.94,4.78,4.8,3.72,1.64,7.86,1.58,11.5.01,1.81-.81,3.48-2.04,4.75-3.49,1.29-1.45,2.24-3.04,2.98-4.62,1.5-3.17,2.33-6.3,3.38-9.11,1.07-2.93,2.17-5.86,3.34-8.71.6-1.44,1.16-2.78,1.85-4.05.72-1.35,1.46-2.7,2.23-4.02.77-1.31,1.57-2.61,2.41-3.83.83-1.2,1.74-2.43,2.56-3.25,2.15-1.99,4.4-3.83,6.81-4.83,1.22-.51,2.49-.85,3.82-1.03,1.45-.19,3.19-.4,4.79-.69,3.26-.58,6.62-1.49,9.77-3.09,1.58-.8,3.05-1.74,4.46-2.85.76-.59,1.28-1.1,1.89-1.64l1.78-1.6,3.56-3.21c.57-.55.98-.91,1.55-1.33.55-.41,1.14-.82,1.77-1.22,1.26-.82,2.63-1.61,4.06-2.6l3.86-2.79,7.59-5.47c1.15-.77,2.41-1.45,3.42-1.74.08-.03.15-.04.22-.06.25,1.16.42,2.56.54,3.89.06.74.11,1.48.12,2.2,0,.09,0,.18,0,.27-.45.08-.91.2-1.37.41-.74.35-1.41.89-1.9,1.49-1,1.24-1.3,2.54-1.43,3.67-.11,1.14-.02,2.2.19,3.22.22,1.02.57,2.01,1.1,2.98.26.49.6.97,1,1.45.2.24.44.47.68.7.23.2.46.38.71.55,1.97,1.36,4.16,1.75,6.16,1.71,2-.05,3.99-.54,5.8-1.51,1.81-.93,3.46-2.63,4.4-4.29,1.95-3.39,2.5-6.61,3.42-9.58.88-3.3,1.3-6.3,2.46-8.5.59-1.11,1.23-1.91,2.28-2.77,1.03-.87,2.37-1.73,3.77-2.92,1.47-1.26,2.71-2.91,3.53-4.53.84-1.63,1.4-3.23,1.94-4.67.54-1.43,1.06-2.73,1.73-3.75.67-1.06,1.37-1.66,2.72-2.8.18-.15.34-.34.48-.54l.02-.03.69-1.02.71-1.11c.46-.75.91-1.51,1.33-2.31.42-.8.82-1.63,1.17-2.54.16-.43.26-.74.36-1.01,2.47-.8,4.52-1.84,6.61-2.88l1.79-.95c.59-.33,1.01-.52,1.62-.8,1.15-.51,2.35-1.01,3.45-1.39.26-.09.55-.17.67-.2-.19.02.42-.05.73-.09.74-.09,1.53-.23,2.34-.44,1.59-.43,3.36-1.22,4.75-2.72,1.37-1.47,2.15-3.57,2.1-5.52,0-.97-.17-1.89-.42-2.73ZM85.06,70.66c.34-.34.65-.58.85-.7.21-.12.26-.12.35-.12.09,0,.17,0,.93.25l1.77.53c.86.25,1.69.49,2.51.74-1,.47-2.1.88-3.24,1.19-1.96.55-4.2.89-6.56,1.57,1.12-1.12,2.25-2.26,3.39-3.46Z"/>
      <path class="cls-3" d="M73.75,35.65c-.26-.5-.52-.99-.25-1.2l.43-.84.87-1.69c.59-1.12,1.19-2.25,1.83-3.36.66-1.1,1.33-2.2,2.08-3.26.38-.52.76-1.05,1.17-1.56l.62-.76.32-.37c.08-.15.29-.19.99.16.51.26.95.61,1.3,1.02l.04.05c.51.6.53.8.41.9l-.26.37-.5.75-.98,1.53c-.65,1.02-1.31,2.05-1.93,3.1-.65,1.04-1.27,2.1-1.89,3.17l-.92,1.62-.46.82c-.03.34-.58.4-1.14.46-.74.08-1.43-.31-1.76-.93Z"/>
      <path class="cls-3" d="M84.93,40.54c-.26-1.68-.26-3.25.53-4.52.61-1.33,1.31-2.61,2.06-3.87,1.51-2.5,3.33-4.83,5.4-6.92,4.11-4.25,9.52-7.28,15.22-8.82,5.74-1.45,11.93-1.45,17.59.22,2.83.83,5.54,1.98,8.08,3.4,1.27.72,2.51,1.48,3.69,2.33.6.41,1.18.87,1.76,1.32.6.44,1.07,1.04.86,2.43-.12.8-.67,1.42-1.37,1.69l-.4.15c-1.21.46-1.8.21-2.26-.2-.51-.37-1.01-.74-1.55-1.09-1.05-.71-2.15-1.34-3.27-1.93-2.25-1.17-4.61-2.08-7.02-2.71-4.82-1.32-9.88-1.34-14.69-.13-2.38.67-4.74,1.48-6.87,2.74-2.17,1.19-4.16,2.69-5.93,4.45-1.78,1.75-3.36,3.72-4.7,5.86-.66,1.08-1.29,2.18-1.82,3.32-.38,1.19-1.42,2.14-2.47,3.07l-.18.16c-.67.59-1.69.53-2.28-.14-.21-.24-.34-.52-.39-.82Z"/>
    </g>
    <g>
      <path class="cls-2" d="M359.05,9.71h-26.33l-30.6,69.99-26.27-35.03,31.78-34.96h-29.17l-26.11,28.83V9.71h-26.33v79.45h26.33v-19.64l6.02-6.7,19.86,26.33h46.99l4.75-12.34.58-1.51h30.19l5.33,13.85h27.7l-34.73-79.45ZM337.93,56.02l7.72-19.98,7.72,19.98h-15.44Z"/>
      <path class="cls-2" d="M474.14,9.71v79.45h-22.02l-30.19-36.1v36.1h-26.11V9.71h22.02l30.19,36.1V9.71h26.11Z"/>
      <path class="cls-2" d="M537.36,47.28h23.27v33.6c-4.69,3.25-10.14,5.75-16.34,7.49-6.21,1.74-12.3,2.61-18.27,2.61-8.48,0-16.08-1.76-22.81-5.28-6.74-3.52-12.01-8.44-15.83-14.76-3.82-6.32-5.73-13.49-5.73-21.51s1.91-15.19,5.73-21.51c3.82-6.32,9.15-11.24,16-14.76,6.85-3.52,14.59-5.28,23.21-5.28,7.79,0,14.77,1.31,20.94,3.92,6.17,2.61,11.29,6.41,15.38,11.41l-17.14,15.1c-4.99-5.83-10.94-8.74-17.82-8.74-5.9,0-10.59,1.78-14.07,5.33-3.48,3.56-5.22,8.4-5.22,14.53s1.72,10.78,5.16,14.42c3.44,3.63,8.04,5.45,13.79,5.45,3.41,0,6.66-.64,9.76-1.93v-20.09Z"/>
      <path class="cls-2" d="M588.44,85.65c-6.81-3.56-12.15-8.49-16-14.81-3.86-6.32-5.79-13.45-5.79-21.4s1.93-15.08,5.79-21.4c3.86-6.32,9.19-11.26,16-14.81,6.81-3.56,14.49-5.33,23.04-5.33s16.23,1.78,23.04,5.33c6.81,3.56,12.15,8.5,16,14.81,3.86,6.32,5.79,13.45,5.79,21.4s-1.93,15.08-5.79,21.4c-3.86,6.32-9.19,11.26-16,14.81-6.81,3.56-14.49,5.33-23.04,5.33s-16.23-1.78-23.04-5.33ZM620.51,66.86c2.69-1.63,4.82-3.93,6.41-6.92,1.59-2.99,2.38-6.49,2.38-10.5s-.79-7.51-2.38-10.5c-1.59-2.99-3.73-5.3-6.41-6.92-2.69-1.63-5.69-2.44-9.02-2.44s-6.34.81-9.02,2.44c-2.69,1.63-4.82,3.94-6.41,6.92-1.59,2.99-2.38,6.49-2.38,10.5s.79,7.51,2.38,10.5c1.59,2.99,3.73,5.3,6.41,6.92,2.69,1.63,5.69,2.44,9.02,2.44s6.34-.81,9.02-2.44Z"/>
    </g>
    <path class="cls-3" d="M734.75,89.17l-.23-36.21-17.25,29.06h-11.8l-17.25-27.81v34.96h-24.4V9.71h22.02l25.88,42.34,25.2-42.34h22.02l.23,79.45h-24.4Z"/>
    <path class="cls-3" d="M843.94,9.71h39.16c8.85,0,16.67,1.61,23.44,4.82,6.77,3.22,12.03,7.81,15.78,13.79,3.75,5.98,5.62,13.02,5.62,21.11s-1.87,15.14-5.62,21.11c-3.75,5.98-9.01,10.58-15.78,13.79-6.77,3.22-14.59,4.82-23.44,4.82h-39.16V9.71ZM881.97,68.28c5.75,0,10.35-1.65,13.79-4.94,3.44-3.29,5.16-7.93,5.16-13.9s-1.72-10.61-5.16-13.9c-3.44-3.29-8.04-4.94-13.79-4.94h-11.24v37.68h11.24Z"/>
    <path class="cls-3" d="M935.43,9.71h26.79v79.45h-26.79V9.71Z"/>
    <path class="cls-3" d="M1027.03,75.32h-30.19l-5.33,13.85h-27.24l34.73-79.45h26.33l34.73,79.45h-27.7l-5.33-13.85ZM1019.65,56.02l-7.72-19.98-7.72,19.98h15.44Z"/>
    <g>
      <rect class="cls-3" x="769.82" y="9.71" width="64.59" height="20.2"/>
      <rect class="cls-3" x="769.82" y="68.96" width="64.59" height="20.2"/>
      <rect class="cls-3" x="769.82" y="39.34" width="64.59" height="20.2"/>
    </g>
    <g>
      <path class="cls-1" d="M232.98,130.86l-8.82-26.16h2.84l8.26,24.63h-1.42l8.52-24.63h2.54l8.41,24.63h-1.35l8.33-24.63h2.65l-8.82,26.16h-2.92l-8.03-23.36h.75l-8.07,23.36h-2.88Z"/>
      <path class="cls-1" d="M273,128.47h15.73v2.39h-18.5v-26.16h17.94v2.39h-15.17v21.38ZM272.7,116.4h13.83v2.35h-13.83v-2.35Z"/>
      <path class="cls-1" d="M297.48,130.86v-26.16h11.29c2.92,0,5.18.59,6.78,1.76,1.61,1.17,2.41,2.83,2.41,4.97,0,1.42-.33,2.62-.99,3.59s-1.56,1.71-2.69,2.21c-1.13.5-2.37.75-3.72.75l.64-.9c1.67,0,3.11.26,4.32.77s2.15,1.27,2.82,2.28c.67,1.01,1.01,2.26,1.01,3.76,0,2.22-.82,3.94-2.45,5.16-1.63,1.22-4.09,1.83-7.38,1.83h-12.03ZM300.25,128.58h9.23c2.29,0,4.05-.39,5.27-1.18,1.22-.78,1.83-2.04,1.83-3.75s-.61-2.93-1.83-3.72-2.98-1.18-5.27-1.18h-9.53v-2.28h8.63c2.09,0,3.72-.4,4.88-1.2,1.16-.8,1.74-1.98,1.74-3.55s-.58-2.78-1.74-3.57c-1.16-.79-2.78-1.18-4.88-1.18h-8.33v21.6Z"/>
      <path class="cls-1" d="M335.11,131.08c-1.94,0-3.81-.32-5.59-.95s-3.16-1.45-4.13-2.45l1.08-2.13c.92.9,2.16,1.65,3.72,2.26,1.56.61,3.2.92,4.91.92s2.98-.21,4.02-.62c1.03-.41,1.79-.97,2.28-1.66s.73-1.47.73-2.32c0-1.02-.29-1.84-.88-2.47-.59-.62-1.35-1.11-2.3-1.48-.95-.36-1.99-.68-3.14-.95-1.15-.27-2.29-.57-3.44-.88s-2.2-.73-3.16-1.25c-.96-.52-1.73-1.21-2.32-2.07-.59-.86-.88-1.99-.88-3.38,0-1.3.34-2.49,1.03-3.57.69-1.08,1.74-1.96,3.16-2.62,1.42-.66,3.24-.99,5.46-.99,1.47,0,2.93.21,4.37.62,1.44.41,2.69.98,3.74,1.7l-.93,2.21c-1.12-.75-2.31-1.3-3.57-1.64-1.26-.35-2.47-.52-3.64-.52-1.57,0-2.87.21-3.89.64-1.02.42-1.77.99-2.26,1.7s-.73,1.51-.73,2.41c0,1.02.29,1.84.88,2.47.58.62,1.36,1.11,2.32,1.46.96.35,2.01.66,3.16.93s2.29.57,3.42.9c1.13.32,2.18.74,3.14,1.25.96.51,1.73,1.19,2.32,2.04.58.85.88,1.96.88,3.33,0,1.27-.35,2.45-1.05,3.53-.7,1.08-1.76,1.96-3.2,2.62s-3.27.99-5.51.99Z"/>
      <path class="cls-1" d="M353.13,130.86v-26.16h2.77v26.16h-2.77Z"/>
      <path class="cls-1" d="M371.74,130.86v-23.77h-9.19v-2.39h21.15v2.39h-9.19v23.77h-2.77Z"/>
      <path class="cls-1" d="M393.11,128.47h15.73v2.39h-18.5v-26.16h17.94v2.39h-15.17v21.38ZM392.81,116.4h13.83v2.35h-13.83v-2.35Z"/>
      <path class="cls-1" d="M424.8,131.08c-1.94,0-3.81-.32-5.59-.95s-3.16-1.45-4.13-2.45l1.08-2.13c.92.9,2.16,1.65,3.72,2.26,1.56.61,3.2.92,4.91.92s2.98-.21,4.02-.62c1.03-.41,1.79-.97,2.28-1.66s.73-1.47.73-2.32c0-1.02-.29-1.84-.88-2.47-.59-.62-1.35-1.11-2.3-1.48-.95-.36-1.99-.68-3.14-.95-1.15-.27-2.29-.57-3.44-.88s-2.2-.73-3.16-1.25c-.96-.52-1.73-1.21-2.32-2.07-.59-.86-.88-1.99-.88-3.38,0-1.3.34-2.49,1.03-3.57.69-1.08,1.74-1.96,3.16-2.62,1.42-.66,3.24-.99,5.46-.99,1.47,0,2.93.21,4.37.62,1.44.41,2.69.98,3.74,1.7l-.93,2.21c-1.12-.75-2.31-1.3-3.57-1.64-1.26-.35-2.47-.52-3.64-.52-1.57,0-2.87.21-3.89.64-1.02.42-1.77.99-2.26,1.7s-.73,1.51-.73,2.41c0,1.02.29,1.84.88,2.47.58.62,1.36,1.11,2.32,1.46.96.35,2.01.66,3.16.93s2.29.57,3.42.9c1.13.32,2.18.74,3.14,1.25.96.51,1.73,1.19,2.32,2.04.58.85.88,1.96.88,3.33,0,1.27-.35,2.45-1.05,3.53-.7,1.08-1.76,1.96-3.2,2.62s-3.27.99-5.51.99Z"/>
      <path class="cls-1" d="M453.2,118.9v-2.21h16.26v2.21h-16.26ZM460.15,125.7v-15.84h2.35v15.84h-2.35Z"/>
      <path class="cls-1" d="M486.43,130.86l11.96-26.16h2.73l11.96,26.16h-2.92l-10.99-24.55h1.12l-10.99,24.55h-2.88ZM491.13,123.87l.82-2.24h15.21l.82,2.24h-16.85Z"/>
      <path class="cls-1" d="M529.63,131.08c-3.34,0-5.97-.96-7.89-2.88-1.92-1.92-2.88-4.76-2.88-8.52v-14.99h2.77v14.87c0,3.09.7,5.37,2.09,6.84,1.4,1.47,3.36,2.21,5.9,2.21s4.55-.73,5.94-2.21c1.4-1.47,2.09-3.75,2.09-6.84v-14.87h2.69v14.99c0,3.76-.95,6.6-2.86,8.52-1.91,1.92-4.53,2.88-7.87,2.88Z"/>
      <path class="cls-1" d="M555.49,130.86v-23.77h-9.19v-2.39h21.15v2.39h-9.19v23.77h-2.77Z"/>
      <path class="cls-1" d="M585.16,131.08c-1.97,0-3.79-.33-5.48-.99-1.68-.66-3.14-1.59-4.37-2.8-1.23-1.21-2.19-2.62-2.88-4.22-.69-1.61-1.03-3.37-1.03-5.29s.34-3.68,1.03-5.29c.68-1.61,1.64-3.01,2.88-4.22,1.23-1.21,2.68-2.14,4.35-2.8,1.67-.66,3.5-.99,5.49-.99s3.79.33,5.46.99c1.67.66,3.12,1.59,4.35,2.78,1.23,1.2,2.19,2.6,2.88,4.22.68,1.62,1.03,3.39,1.03,5.31s-.34,3.69-1.03,5.31c-.69,1.62-1.64,3.03-2.88,4.22-1.23,1.2-2.68,2.12-4.35,2.78-1.67.66-3.49.99-5.46.99ZM585.16,128.62c1.57,0,3.02-.27,4.35-.8,1.33-.54,2.49-1.29,3.48-2.28.98-.98,1.75-2.13,2.3-3.44.55-1.31.82-2.75.82-4.32s-.27-3.01-.82-4.32c-.55-1.31-1.31-2.45-2.3-3.44-.98-.98-2.14-1.74-3.48-2.28-1.33-.54-2.78-.8-4.35-.8s-3.03.27-4.37.8c-1.35.54-2.51,1.29-3.49,2.28-.98.98-1.76,2.13-2.32,3.44-.56,1.31-.84,2.75-.84,4.32s.28,2.98.84,4.3c.56,1.32,1.33,2.47,2.32,3.46.98.98,2.15,1.74,3.49,2.28,1.35.54,2.8.8,4.37.8Z"/>
      <path class="cls-1" d="M607.32,130.86v-26.16h2.28l11.96,20.4h-1.2l11.85-20.4h2.28v26.16h-2.65v-22.01h.64l-10.91,18.68h-1.31l-10.99-18.68h.71v22.01h-2.65Z"/>
      <path class="cls-1" d="M641.06,130.86l11.96-26.16h2.73l11.96,26.16h-2.92l-10.99-24.55h1.12l-10.99,24.55h-2.88ZM645.77,123.87l.82-2.24h15.21l.82,2.24h-16.85Z"/>
      <path class="cls-1" d="M678.06,130.86v-23.77h-9.19v-2.39h21.15v2.39h-9.19v23.77h-2.77Z"/>
      <path class="cls-1" d="M696.67,130.86v-26.16h2.77v26.16h-2.77Z"/>
      <path class="cls-1" d="M721.64,131.08c-1.97,0-3.79-.33-5.48-.99-1.68-.66-3.14-1.59-4.37-2.8-1.23-1.21-2.19-2.62-2.88-4.22-.69-1.61-1.03-3.37-1.03-5.29s.34-3.68,1.03-5.29c.68-1.61,1.64-3.01,2.88-4.22,1.23-1.21,2.68-2.14,4.35-2.8,1.67-.66,3.5-.99,5.49-.99s3.79.33,5.46.99c1.67.66,3.12,1.59,4.35,2.78,1.23,1.2,2.19,2.6,2.88,4.22.68,1.62,1.03,3.39,1.03,5.31s-.34,3.69-1.03,5.31c-.69,1.62-1.64,3.03-2.88,4.22-1.23,1.2-2.68,2.12-4.35,2.78-1.67.66-3.49.99-5.46.99ZM721.64,128.62c1.57,0,3.02-.27,4.35-.8,1.33-.54,2.49-1.29,3.48-2.28.98-.98,1.75-2.13,2.3-3.44.55-1.31.82-2.75.82-4.32s-.27-3.01-.82-4.32c-.55-1.31-1.31-2.45-2.3-3.44-.98-.98-2.14-1.74-3.48-2.28-1.33-.54-2.78-.8-4.35-.8s-3.03.27-4.37.8c-1.35.54-2.51,1.29-3.49,2.28-.98.98-1.76,2.13-2.32,3.44-.56,1.31-.84,2.75-.84,4.32s.28,2.98.84,4.3c.56,1.32,1.33,2.47,2.32,3.46.98.98,2.15,1.74,3.49,2.28,1.35.54,2.8.8,4.37.8Z"/>
      <path class="cls-1" d="M743.8,130.86v-26.16h2.28l18.05,22.72h-1.2v-22.72h2.73v26.16h-2.28l-18.01-22.72h1.2v22.72h-2.77Z"/>
      <path class="cls-1" d="M783.63,131.08c-1.94,0-3.81-.32-5.59-.95s-3.16-1.45-4.13-2.45l1.08-2.13c.92.9,2.16,1.65,3.72,2.26,1.56.61,3.2.92,4.91.92s2.98-.21,4.02-.62c1.03-.41,1.79-.97,2.28-1.66s.73-1.47.73-2.32c0-1.02-.29-1.84-.88-2.47-.59-.62-1.35-1.11-2.3-1.48-.95-.36-1.99-.68-3.14-.95-1.15-.27-2.29-.57-3.44-.88s-2.2-.73-3.16-1.25c-.96-.52-1.73-1.21-2.32-2.07-.59-.86-.88-1.99-.88-3.38,0-1.3.34-2.49,1.03-3.57.69-1.08,1.74-1.96,3.16-2.62,1.42-.66,3.24-.99,5.46-.99,1.47,0,2.93.21,4.37.62,1.44.41,2.69.98,3.74,1.7l-.93,2.21c-1.12-.75-2.31-1.3-3.57-1.64-1.26-.35-2.47-.52-3.64-.52-1.57,0-2.87.21-3.89.64-1.02.42-1.77.99-2.26,1.7s-.73,1.51-.73,2.41c0,1.02.29,1.84.88,2.47.58.62,1.36,1.11,2.32,1.46.96.35,2.01.66,3.16.93s2.29.57,3.42.9c1.13.32,2.18.74,3.14,1.25.96.51,1.73,1.19,2.32,2.04.58.85.88,1.96.88,3.33,0,1.27-.35,2.45-1.05,3.53-.7,1.08-1.76,1.96-3.2,2.62s-3.27.99-5.51.99Z"/>
      <path class="cls-1" d="M812.03,118.9v-2.21h16.26v2.21h-16.26ZM818.99,125.7v-15.84h2.35v15.84h-2.35Z"/>
      <path class="cls-1" d="M856.65,131.08c-1.94,0-3.81-.32-5.59-.95s-3.16-1.45-4.13-2.45l1.08-2.13c.92.9,2.16,1.65,3.72,2.26,1.56.61,3.2.92,4.91.92s2.98-.21,4.02-.62c1.03-.41,1.79-.97,2.28-1.66s.73-1.47.73-2.32c0-1.02-.29-1.84-.88-2.47-.59-.62-1.35-1.11-2.3-1.48-.95-.36-1.99-.68-3.14-.95-1.15-.27-2.29-.57-3.44-.88s-2.2-.73-3.16-1.25c-.96-.52-1.73-1.21-2.32-2.07-.59-.86-.88-1.99-.88-3.38,0-1.3.34-2.49,1.03-3.57.69-1.08,1.74-1.96,3.16-2.62,1.42-.66,3.24-.99,5.46-.99,1.47,0,2.93.21,4.37.62,1.44.41,2.69.98,3.74,1.7l-.93,2.21c-1.12-.75-2.31-1.3-3.57-1.64-1.26-.35-2.47-.52-3.64-.52-1.57,0-2.87.21-3.89.64-1.02.42-1.77.99-2.26,1.7s-.73,1.51-.73,2.41c0,1.02.29,1.84.88,2.47.58.62,1.36,1.11,2.32,1.46.96.35,2.01.66,3.16.93s2.29.57,3.42.9c1.13.32,2.18.74,3.14,1.25.96.51,1.73,1.19,2.32,2.04.58.85.88,1.96.88,3.33,0,1.27-.35,2.45-1.05,3.53-.7,1.08-1.76,1.96-3.2,2.62s-3.27.99-5.51.99Z"/>
      <path class="cls-1" d="M877.43,128.47h15.73v2.39h-18.5v-26.16h17.94v2.39h-15.17v21.38ZM877.13,116.4h13.83v2.35h-13.83v-2.35Z"/>
      <path class="cls-1" d="M913.27,131.08c-1.97,0-3.79-.33-5.48-.99-1.68-.66-3.14-1.59-4.37-2.8-1.23-1.21-2.19-2.62-2.88-4.22-.69-1.61-1.03-3.37-1.03-5.29s.34-3.68,1.03-5.29c.68-1.61,1.64-3.01,2.88-4.22,1.23-1.21,2.68-2.14,4.35-2.8,1.67-.66,3.5-.99,5.49-.99s3.79.33,5.46.99c1.67.66,3.12,1.59,4.35,2.78,1.23,1.2,2.19,2.6,2.88,4.22.68,1.62,1.03,3.39,1.03,5.31s-.34,3.69-1.03,5.31c-.69,1.62-1.64,3.03-2.88,4.22-1.23,1.2-2.68,2.12-4.35,2.78-1.67.66-3.49.99-5.46.99ZM913.27,128.62c1.57,0,3.02-.27,4.35-.8,1.33-.54,2.49-1.29,3.48-2.28.98-.98,1.75-2.13,2.3-3.44.55-1.31.82-2.75.82-4.32s-.27-3.01-.82-4.32c-.55-1.31-1.31-2.45-2.3-3.44-.98-.98-2.14-1.74-3.48-2.28-1.33-.54-2.78-.8-4.35-.8s-3.03.27-4.37.8c-1.35.54-2.51,1.29-3.49,2.28-.98.98-1.76,2.13-2.32,3.44-.56,1.31-.84,2.75-.84,4.32s.28,2.98.84,4.3c.56,1.32,1.33,2.47,2.32,3.46.98.98,2.15,1.74,3.49,2.28,1.35.54,2.8.8,4.37.8Z"/>
    </g>
  </g>
</svg>