<?xml version="1.0" encoding="UTF-8"?>
<svg id="Layer_2" data-name="Layer 2" xmlns="http://www.w3.org/2000/svg" viewBox="0 0 633.87 414.08">
  <defs>
    <style>
      .cls-1 {
        fill: #fff;
      }

      .cls-2 {
        fill: #222;
      }
    </style>
  </defs>
  <g id="Layer_1-2" data-name="Layer 1">
    <g>
      <path class="cls-2" d="M613.16,72.3c-7.65,8.35-20.19,8.4-30.13,12.59-10.44,4.4-20.24,10.29-31.08,13.84-.25.7-.55,1.6-.95,2.8-2.3,5.9-5.2,11.79-9.19,16.74-3.8,4.8-8.4,9-11.59,14.24-5.55,8.94-6.85,20.24-13.49,28.43-5.55,6.8-14.14,10.59-19.64,17.44-6.35,7.95-7.2,18.19-9.69,27.68-2.55,8.25-4.1,17.24-9.54,26.69-7.85,13.89-28.53,21.29-42.78,12.89-8.8-5.2-14.19-15.69-13.19-25.84.7-7.7,5.35-14.44,13.14-16.04.2-3.6,1.75-15.49-2.5-17.39-2-.85-8.5,4.75-10.29,5.85-7.05,4.55-14.09,9.14-21.04,13.89-14.09,9.59-27.83,19.84-40.48,31.28-13.79,12.44-28.48,21.84-47.12,25.24-6.45,1.15-12.99,1.6-19.39,3-10.64,2.25-18.49,8.35-26.34,15.59-17.44,17.44-27.18,44.72-34.83,67.61-3.3,9.84-6.3,19.89-11.54,28.83-7.1,12.09-18.29,20.24-32.43,21.29-11.54.85-25.14-2.85-30.78-13.94-3.35-6.6-2.65-14.69.15-21.54,3.5-8.5,9.84-15.59,14.89-23.14,8.25-12.39,13.49-23.49,15.89-38.33,1.95-11.99,3.05-24.29,7.9-35.43-16.09,15.24-33.93,28.68-54.62,36.98-4.2,1.65-8.5,3.1-12.79,4.3-43.43,11.89-96.65-5.65-113.29-50.27-.8-2.1-1.5-4.25-1.4-6.45.35-7.9,11.79-8.6,17.69-8.2,7.9.5,15.54,3.8,21.79,8.6,9.04,6.9,19.64,11.44,31.08,11.84,25.84,1.05,46.82-16.74,62.61-35.48,15.04-17.89,27.03-38.58,38.88-58.67,10.99-18.69,22.14-37.43,31.98-56.72,9.24-18.04,19.79-35.58,33.38-50.67,33.33-36.98,84.15-50.97,131.33-33.98,19.84,7.15,38.18,17.84,56.67,27.93,6.95,3.8,12.39,4.8,20.09,5.35,3.3.25,6.6.55,9.89.65-8.85-5.15-41.18-26.93-20.79-37.53,19.44-10.14,43.03-12.09,63.91-5.3,2.95.95,5.9,2.1,8.99,2.3,4.55.25,8.9-.9,13.49-.4,4.65.5,9.19,1.6,13.74,2.75,9.34,2.35,18.99,2.8,28.53,3.9,10.54,1.15,21.24,4.8,30.43,9.94,1.9,1.05,3.8,2.2,5.25,3.8,1.85,2,2.95,4.55,3.7,7.15.1.3.15.6.25.9,2.1,8,1,16.69-4.75,22.99Z"/>
      <path class="cls-2" d="M443.16,203.98h-.15c0-.05-.05-.05-.05-.05l.2.05Z"/>
      <path class="cls-2" d="M442.96,203.93s.05,0,.05.05h.15l-.2-.05Z"/>
      <path class="cls-2" d="M185.87,414.08c-18.55,0-33.87-8.32-40.96-22.25-5.03-9.91-5.16-22.3-.37-34.01,3.17-7.7,7.84-14.07,11.96-19.7,1.49-2.03,2.97-4.05,4.35-6.1,6.79-10.2,10.55-18.34,12.65-27.67-8.44,5.35-16.89,9.72-25.44,13.14-4.81,1.89-9.6,3.5-14.34,4.83-10.14,2.78-20.67,4.17-31.39,4.17-46.31,0-85.55-24.98-99.97-63.65-1.26-3.31-2.55-7.45-2.33-12.37.46-10.41,8.61-22.59,30.06-22.59,1.31,0,2.53.05,3.62.12,10.31.65,20.96,4.79,29.9,11.66,4.97,3.79,12.95,8.42,22.48,8.75.61.02,1.13.03,1.65.03,15.83,0,31.85-9.88,48.97-30.19,13.6-16.17,24.95-35.45,35.94-54.09l3.76-6.38c9.99-16.96,20.31-34.51,29.28-52.07,11.65-22.74,22.96-39.86,35.59-53.89,26.41-29.3,63.51-46.1,101.78-46.1,15.54,0,30.94,2.71,45.77,8.05,13.77,4.96,26.7,11.43,39.19,18.16.28-5.4,2.66-14.71,14.68-20.95,13.75-7.18,29.44-10.98,45.34-10.98,10.35,0,20.48,1.59,30.12,4.73l1.55.51c1.32.44,3.12,1.04,3.77,1.08h.39c1.18,0,2.34-.12,3.5-.21,2.04-.18,4.07-.34,6.14-.34,1.36,0,2.72.06,4.1.21,5.56.6,10.64,1.82,15.79,3.11,5.88,1.48,12.26,2.1,19.03,2.76,2.52.24,5.04.49,7.55.78,12.2,1.33,24.69,5.4,36.04,11.76,2.79,1.54,6.11,3.59,9.02,6.8,3.07,3.32,5.34,7.5,6.89,12.68l.1.29.36,1.34c3.57,13.59.52,27.38-8.17,36.91-8.1,8.84-18.5,11.54-26.85,13.71-3.19.83-6.2,1.61-8.53,2.59-3.68,1.55-7.34,3.34-11.21,5.23-4.53,2.21-9.16,4.48-14.08,6.48-2.94,6.86-6.26,12.53-10.09,17.28-1.47,1.86-3.15,3.76-4.84,5.65-2.21,2.47-4.29,4.8-5.61,6.97-1.7,2.75-3.02,6.32-4.41,10.11-2.32,6.31-4.96,13.45-10.24,19.97-3.93,4.82-8.42,8.19-12.38,11.18-2.89,2.17-5.61,4.22-7.21,6.21-2.67,3.34-3.83,8.66-5.18,14.81-.54,2.45-1.08,4.9-1.71,7.31l-.18.61c-.57,1.84-1.08,3.72-1.61,5.64-1.86,6.81-4.18,15.27-9.27,24.11-8.06,14.27-25.04,23.94-42.18,23.94-7.63,0-14.95-1.95-21.19-5.62-13.23-7.82-21.33-22.93-20.65-38.12-14.39,9.93-25.89,18.9-36.04,28.07-17.95,16.19-35.26,25.36-54.5,28.87-3.01.54-5.99.94-8.97,1.33-3.51.46-6.83.9-9.9,1.57-6.88,1.45-12.43,5.57-19.15,11.75-14.53,14.67-23.29,38.45-31.01,61.55l-1.19,3.6c-3.06,9.27-6.23,18.86-11.64,28.08-10.04,17.1-25.75,27.27-44.25,28.65-1.42.1-2.85.16-4.3.16Z"/>
      <path class="cls-2" d="M442.96,203.93l.2.05h-.15c0-.05-.05-.05-.05-.05Z"/>
      <path class="cls-2" d="M242.32,221.52c3.15-3.1,6.3-6.3,9.44-9.64.95-.95,1.8-1.65,2.4-1.95s.7-.3.95-.35c.25.05.45.05,2.6.7l4.95,1.5c2.4.7,4.7,1.35,7,2.05-2.8,1.3-5.85,2.45-9.04,3.35-5.45,1.5-11.69,2.45-18.29,4.35Z"/>
      <path class="cls-2" d="M219.29,111.73c0-.3.05-.55.3-.75l-.3.75Z"/>
      <g>
        <path class="cls-1" d="M443.18,204l-.24-.05s.04,0,.05,0c.87.19.07.02.19.05Z"/>
        <g>
          <path class="cls-1" d="M250.28,67.29c-.92-.92-1.82-1.84-1.39-1.77l.33-.5.67-.99,1.35-1.99c.52-.62.97-1.27,1.61-1.81.33-.25.62-.54.99-.76l.52-.35.26-.17c.02-.13.36.07,1.95,1.51,1.1,1,2.16,2.04,3.16,3.12l.24.27c1.46,1.58,1.68,1.91,1.57,1.91l-.12.23-.24.46c-.15.32-.36.58-.54.87l-1.27,1.59-1.44,1.47-.73.74-.36.37c.19.36-.93-.27-2.09-.9l-.2-.11c-1.58-.86-3.04-1.98-4.26-3.18Z"/>
          <path class="cls-1" d="M617.85,49.32c-.35-1.18-.76-2.3-1.22-3.39l-1.14-2.63c-.56-1.3-1.49-2.46-2.75-3.31l-.17-.12c-6.75-4.53-14.58-7.83-22.39-10.02-3.95-1.11-8-1.91-12.11-2.39-2.01-.29-4.21-.37-6.15-.5l-5.41-.28c-3.54-.24-7.05-.57-9.97-1.21-1.4-.29-2.94-.79-4.82-1.35l-5.58-1.64c-7.12-1.97-15.54-2.87-23.72-.66-11.54-4.49-23.73-7.01-36.33-6.88-6.76.08-13.59,1-20.2,2.86l-4.91,1.58-4.77,1.96c-3.04,1.32-5.65,2.6-8.5,3.9l-.08.04c-3.75,1.77-5.36,6.25-3.59,10l.02.03,2.75,5.82.69,1.46c.26.54.68,1.37,1.03,1.97.74,1.27,1.53,2.44,2.37,3.51,3.35,4.3,7.45,7.68,12,10.25,2.66,1.5,5.47,2.67,8.34,3.58-.24-.01-.46,0-.69-.01l-10.05-.74c-2.84-.16-5.76-.24-8.82-.18-6.78-2.95-13.68-6.43-20.43-10.03-7.1-3.81-14.48-8.08-22.06-11.89-7.58-3.81-15.31-7.43-23.39-10.52-8.07-3.09-16.47-5.76-25.62-7.04-8.39-1.03-17.25-1.89-26.19-1.13-8.85.7-17.48,2.52-25.78,5.13-8.33,2.61-16.24,5.9-23.99,9.99-7.85,4.19-14.74,9.73-20.84,15.81-1.49,1.49-1.65,3.92-.28,5.59,1.46,1.78,4.08,2.04,5.86.59l.02-.02c6.18-5.06,12.88-9.33,19.93-12.48,7.2-3.11,14.91-5.64,22.59-7.39,7.71-1.73,15.52-2.84,23.25-3,3.88-.03,7.66-.03,11.55.3,3.84.3,8.02.85,11.89,1.33,14.73,2.19,29.85,8.95,44.24,16.14,7.25,3.65,14.23,7.71,21.75,11.76,7.47,3.99,14.91,7.81,22.99,11.27.97.41,2.08.63,3.21.57h.08c2.81-.14,5.97-.02,9.16.16l9.89.74c3.81.25,7.75.23,12.06-.66,2.16-.48,4.42-1.16,6.87-2.57,1.23-.74,2.49-1.56,3.88-3.16.39-.49.68-.84,1.08-1.5l.54-1,.16-.36.3-.69,3.28-5.09.36-.56c.56-.88.94-1.89,1.08-2.99.49-3.96-2.32-7.57-6.28-8.06l-6.64-.83-3.32-.41-1.66-.2-1.27-.22c-3.43-.56-6.71-1.71-9.64-3.37-2.92-1.64-5.55-3.87-7.46-6.34-.49-.61-.89-1.24-1.23-1.81l-.46-.88-.18-.38c.46-.21.95-.44,1.39-.63l3.77-1.55,3.88-1.24c5.24-1.46,10.72-2.2,16.26-2.26,11.07-.14,22.49,2.39,32.84,6.75l.09.04c1.69.71,3.64.8,5.49.12,5.1-1.88,11.13-1.57,17.45.17l5.15,1.52c1.7.5,3.71,1.17,5.96,1.65,4.37.95,8.33,1.26,12.23,1.54l5.77.31c1.78.13,3.32.17,5,.42,3.3.39,6.59,1.03,9.83,1.95,5.8,1.67,11.26,3.91,16.37,7.06,2.02,5.03,1.5,7.86-.58,10.32-1.19,1.3-3.22,2.42-5.92,3.13-1.34.36-2.8.62-4.41.82-.98.15-1.15.04-3.48.49-1.46.34-2.42.66-3.46,1-3.93,1.35-7.43,2.82-11,4.4-1.67.73-3.86,1.76-5.45,2.67l-4.84,2.56c-6.3,3.22-13.04,6.47-18.7,7.88l-.14.03c-1.86.47-3.56,1.64-4.65,3.4-1.96,3.14-2.71,6.35-3.26,7.67-.68,1.75-1.55,3.59-2.51,5.43-.97,1.84-2.04,3.68-3.16,5.5l-1.73,2.7-1.31,1.94c-1.4,1.2-2.69,2.24-4.54,4.07-2.02,1.95-3.7,4.17-5.19,6.41-2.94,4.54-4.69,9.17-6.3,13.36-3.09,8.52-5.74,15.14-10.88,19.34-2.78,2.41-6.44,4.78-10.31,7.97-3.91,3.11-7.85,7.78-10.21,12.5-4.86,9.6-5.86,19.02-8.07,26.69-2.5,8.47-4.39,17.03-7.9,22.83-1.81,2.97-3.54,4.74-6.31,6.24-2.68,1.45-5.89,2.26-9.09,2.33-3.15.09-6.08-.68-7.83-1.95-.23-.15-.43-.33-.62-.49-.11-.12-.24-.23-.39-.41-.29-.35-.64-.8-.94-1.39-.62-1.13-1.15-2.56-1.45-4-.67-2.46-.17-5.28.15-5.91.04,0,.09,0,.21-.03.31.02.72,0,1.34.15l.22.04.6.11c1.39.24,3.04.07,4.35-.44,1.17-.47,1.74-.91,2.54-1.57.77-.68,1.31-1.42,1.41-1.6.4-.57.92-1.63,1-1.91l.4-1.18.2-.83c.13-.59.18-.95.24-1.39.38-3.15.32-5.4.28-7.85-.06-2.39-.2-4.7-.39-7.02-.42-4.68-.88-9.11-2.08-14.26-.42-1.43-.5-2.46-1.86-5.1-.28-.44-.28-.55-.81-1.24-.4-.54-1.21-1.36-1.43-1.51-.51-.4-1.01-.82-1.57-1.15-1.1-.69-2.28-1.21-3.41-1.54-4.66-1.29-8.06-.45-10.91.28-5.64,1.7-9.84,4.2-13.95,6.87l-21.6,15.51-10.6,7.63c-3.24,2.24-7.01,4.45-10.87,6.94-1.94,1.25-3.91,2.58-5.89,4.07-1.93,1.42-4.09,3.33-5.67,4.86l-9.65,8.68-4.82,4.34c-1.58,1.41-3.29,3.04-4.67,4.05-2.96,2.33-6.28,4.46-9.72,6.19-6.91,3.51-14.65,5.67-22.83,7.1-4.19.75-8.05,1.2-12.72,1.8-4.97.67-10,1.99-14.69,3.97-4.68,2-9.09,4.58-13,7.5-1.98,1.44-3.82,2.96-5.6,4.46l-2.6,2.26c-.88.79-1.54,1.34-2.69,2.45-3.93,3.93-6.55,7.67-9.23,11.53-2.6,3.84-4.99,7.71-7.27,11.62-2.28,3.91-4.45,7.84-6.55,11.83-2.26,4.19-4.08,8.57-5.77,12.66-3.39,8.32-6.48,16.58-9.5,24.91-3.13,8.62-5.41,16.94-8.78,23.99-3.32,7.13-7.74,12.39-13.62,14.98-5.93,2.67-13.44,2.67-19.15.1-2.78-1.24-4.7-3.15-5.11-4.49-.5-1.36-.39-3.71,1.05-6.86,1.39-3.1,3.58-6.4,6.07-9.98l7.42-10.99c2.48-3.68,4.98-7.47,7.35-11.48,2.32-3.98,4.65-8.19,6.45-13.11,3.38-9.56,4.23-18.87,5.47-27.31.63-4.28,1.27-8.12,2.33-12.14,1.02-4,2.18-7.96,3.63-11.76,5.57-15.23,15.15-28.93,28.84-34.72,6.66-3.05,15.12-4.07,24.33-6.56,4.66-1.3,9.23-2.9,13.86-5.34,2.31-1.25,4.66-2.69,6.99-4.8,2.26-2.09,4.83-5.08,5.84-9.56.78-3.45-.96-7.09-4.32-8.56l-.09-.04c-6.88-3.02-13.67-4.84-20.05-6.69l-4.7-1.39c-1.05-.31-4.07-1.42-7.18-1.37-3.13-.02-6.29,1.04-8.58,2.41-2.34,1.37-4.02,2.92-5.46,4.32-8.84,9.46-19.25,19.08-28.37,28.75-18.54,19.33-36.85,38.34-58.89,51.39-10.93,6.52-22.63,11.48-34.78,13.88-12.03,2.47-24.72,2.06-36.83-.6-12.09-2.69-23.67-7.81-32.98-15.41-4.64-3.8-8.71-8.2-11.88-13.14-.83-1.21-1.52-2.51-2.25-3.78l-2.06-4.21c1.26.14,2.54.37,3.8.75,2.08.62,4.11,1.52,5.89,2.63.42.3.87.57,1.27.88l1.43,1.11c1.27.96,2.48,2,3.81,2.89,10.43,7.39,23.12,11.57,35.82,12.01,12.71.5,25.39-2.58,36.46-8.27,11.18-5.59,20.58-13.62,28.84-22.18,8.21-8.66,15.3-18.03,21.88-27.52,6.55-9.46,12.85-19.07,18.79-29.02,5.91-9.96,11.45-20.1,16.03-30.53,2.26-5.24,4.46-10.48,6.37-15.88,2.01-5.37,4.5-10.46,6.63-15.75.63-1.57.09-3.42-1.38-4.38-1.67-1.09-3.91-.62-5,1.05-3.12,4.77-5.87,9.76-9.11,14.46-3.35,4.67-6.35,9.52-9.33,14.36-5.87,9.73-10.95,19.68-16.71,29.21-5.72,9.54-11.9,18.93-18.29,28.12-6.37,9.16-13.06,17.92-20.5,25.74-7.47,7.73-15.67,14.62-24.88,19.18-9.11,4.66-19.23,7.05-29.24,6.64-9.99-.38-19.75-3.62-27.86-9.37-1.03-.69-1.97-1.52-2.97-2.26l-1.93-1.51c-.73-.55-1.48-1.04-2.23-1.54-3.03-1.89-6.24-3.32-9.6-4.32-6.65-1.97-14.26-2.39-21.72.65-3.55,1.46-5.42,5.45-4.16,9.14l.03.08c1.33,3.92,3.03,7.14,4.41,10.04l2.35,4.79c.93,1.64,1.83,3.31,2.88,4.87,4.06,6.35,9.22,11.92,14.93,16.61,11.5,9.4,25.15,15.33,39.17,18.49,14.04,3.11,28.74,3.62,43.01.74,14.2-2.78,27.52-8.48,39.6-15.66,13.31-7.88,25.09-17.53,36.08-27.77-.2.5-.43,1-.62,1.51-1.67,4.4-3,8.88-4.15,13.38-1.19,4.47-2.02,9.3-2.66,13.7-1.27,8.89-2.2,17.21-4.75,24.25-1.21,3.34-3.11,6.87-5.22,10.46-2.1,3.55-4.44,7.08-6.87,10.68l-7.33,10.82c-2.51,3.62-5.3,7.61-7.53,12.52-1.11,2.46-2.06,5.27-2.49,8.46-.44,3.19-.18,6.8,1.04,10.23,2.68,7.02,8.22,10.99,13.31,13.37,10.37,4.57,21.9,4.41,32.04.03,5.05-2.26,9.7-5.7,13.24-9.74,3.59-4.03,6.23-8.48,8.32-12.88,4.18-8.84,6.5-17.55,9.41-25.4,2.98-8.16,6.05-16.34,9.3-24.28,1.67-4.02,3.23-7.75,5.15-11.29,1.99-3.77,4.07-7.53,6.22-11.19,2.15-3.67,4.38-7.26,6.71-10.69,2.3-3.36,4.84-6.78,7.14-9.05,6-5.56,12.25-10.69,18.97-13.46,3.39-1.43,6.93-2.37,10.65-2.88,4.03-.52,8.89-1.1,13.34-1.91,9.09-1.6,18.46-4.14,27.23-8.61,4.39-2.23,8.51-4.85,12.43-7.95,2.13-1.63,3.57-3.06,5.27-4.57l4.96-4.47,9.91-8.95c1.58-1.52,2.72-2.52,4.31-3.72,1.52-1.15,3.19-2.28,4.94-3.41,3.5-2.27,7.32-4.5,11.3-7.25l10.77-7.77,21.16-15.24c3.2-2.14,6.72-4.04,9.52-4.84.22-.07.42-.11.63-.15.7,3.25,1.18,7.14,1.5,10.85.17,2.05.3,4.12.35,6.12,0,.24,0,.5.01.74-1.26.23-2.53.57-3.81,1.16-2.07.97-3.93,2.48-5.3,4.17-2.77,3.45-3.62,7.07-3.99,10.22-.31,3.19-.06,6.14.54,8.99.6,2.85,1.58,5.6,3.07,8.32.73,1.36,1.66,2.71,2.78,4.03.55.66,1.22,1.31,1.9,1.94.64.55,1.29,1.07,1.97,1.54,5.49,3.8,11.6,4.88,17.18,4.78,5.57-.14,11.11-1.5,16.16-4.22,5.05-2.58,9.65-7.34,12.26-11.95,5.44-9.44,6.97-18.43,9.53-26.7,2.46-9.19,3.62-17.55,6.85-23.68,1.63-3.11,3.43-5.32,6.35-7.73,2.88-2.42,6.62-4.83,10.5-8.15,4.09-3.5,7.57-8.1,9.84-12.63,2.34-4.55,3.89-9,5.4-13,1.51-4,2.95-7.62,4.82-10.45,1.87-2.95,3.82-4.61,7.58-7.81.49-.42.96-.94,1.34-1.5l.06-.09,1.92-2.85,1.98-3.1c1.29-2.09,2.53-4.22,3.7-6.45,1.17-2.23,2.27-4.54,3.25-7.08.43-1.2.74-2.07.99-2.81,6.88-2.22,12.59-5.12,18.42-8.04l4.99-2.64c1.63-.93,2.81-1.46,4.52-2.23,3.2-1.43,6.55-2.82,9.63-3.88.73-.25,1.53-.49,1.88-.57-.52.04,1.17-.13,2.03-.24,2.07-.26,4.27-.63,6.51-1.24,4.43-1.19,9.36-3.4,13.23-7.58,3.81-4.1,6-9.94,5.86-15.38-.02-2.69-.48-5.26-1.18-7.61ZM251.79,211.87c.95-.94,1.8-1.63,2.37-1.95.59-.32.73-.32.96-.33.26.01.46.02,2.6.7l4.94,1.47c2.39.69,4.71,1.37,7,2.06-2.78,1.31-5.85,2.45-9.03,3.32-5.46,1.54-11.72,2.48-18.28,4.37,3.13-3.12,6.28-6.29,9.44-9.65Z"/>
          <path class="cls-1" d="M220.28,114.31c-.74-1.38-1.45-2.75-.71-3.34l1.19-2.35,2.43-4.7c1.64-3.13,3.33-6.26,5.1-9.37,1.83-3.07,3.71-6.12,5.79-9.08,1.06-1.46,2.12-2.93,3.27-4.34l1.74-2.1.9-1.04c.22-.4.81-.53,2.76.45,1.43.72,2.65,1.7,3.63,2.85l.12.14c1.41,1.67,1.46,2.24,1.15,2.52l-.71,1.03-1.38,2.1-2.72,4.25c-1.82,2.84-3.64,5.71-5.38,8.65-1.8,2.9-3.55,5.86-5.26,8.85l-2.56,4.52-1.27,2.28c-.08.95-1.61,1.12-3.16,1.28-2.07.22-3.97-.88-4.9-2.6Z"/>
          <path class="cls-1" d="M251.43,127.94c-.73-4.68-.73-9.07,1.47-12.59,1.69-3.71,3.65-7.28,5.74-10.77,4.22-6.96,9.27-13.46,15.06-19.3,11.44-11.84,26.52-20.29,42.43-24.57,16-4.03,33.25-4.05,49.04.62,7.88,2.31,15.45,5.51,22.53,9.47,3.54,2,6.99,4.13,10.29,6.5,1.67,1.15,3.28,2.42,4.89,3.67,1.66,1.22,2.99,2.91,2.39,6.78-.34,2.22-1.86,3.96-3.81,4.71l-1.11.42c-3.37,1.27-5.01.59-6.31-.57-1.42-1.03-2.82-2.07-4.31-3.03-2.92-1.97-5.99-3.74-9.11-5.38-6.26-3.26-12.85-5.79-19.58-7.55-13.44-3.69-27.53-3.72-40.95-.36-6.64,1.86-13.22,4.11-19.15,7.64-6.04,3.3-11.61,7.49-16.52,12.42-4.96,4.86-9.37,10.37-13.09,16.33-1.84,3-3.59,6.07-5.08,9.24-1.05,3.33-3.96,5.97-6.88,8.56l-.5.44c-1.86,1.65-4.7,1.48-6.35-.38-.59-.67-.95-1.46-1.08-2.29Z"/>
        </g>
      </g>
    </g>
  </g>
</svg>